<svg width="431" height="303" viewBox="0 0 431 303" fill="none" xmlns="http://www.w3.org/2000/svg">
<path d="M145 86.5L150.92 82.0272C161.884 73.7428 174.245 67.4908 187.416 63.5676L191 62.5L217.5 57H228.5L234.5 79L235.5 99.5L240.5 107L246.5 111.5L264.5 109.5L267.5 111.5L280 104.5L315.5 144.5L358.744 219.229C367.766 234.819 380.611 247.853 396.068 257.1L431 278H0L59.9487 220.567C67.5897 213.246 73.8798 204.636 78.5302 195.131L105.34 140.332C113.071 124.531 123.1 109.964 135.102 97.1045L145 86.5Z" fill="#090404"/>
<path d="M121.493 77.6199C125.822 73.8808 130.477 70.5361 135.402 67.6259L150 59L126.444 79.9795C120.835 84.9751 115.845 90.6251 111.58 96.8085L98 116.5L76 163.5L56.5 194.5H29L60 160L76.3314 131.651C83.0966 119.908 90.9091 108.8 99.6734 98.4622L103.435 94.0249C105.143 92.0113 107.003 90.1334 109.001 88.4079L121.493 77.6199Z" fill="#D9D9D9" fill-opacity="0.46"/>
<path d="M179.09 35.9038L204.643 35.6925L162.665 44.2971L130.816 59.3533L112 55L150.528 41.3058L179.09 35.9038Z" fill="url(#paint0_linear_2_40)" fill-opacity="0.76"/>
<path d="M191.909 67.7115C191.337 66.9496 191.161 65.9617 191.435 65.0495L191.985 63.2163C192.302 62.1592 192.013 61.0133 191.233 60.2329L187.58 56.5796C186.621 55.6213 186.326 54.1842 186.83 52.9259V52.9259C186.933 52.6687 187.182 52.5 187.459 52.5H188.206C189.366 52.5 190.49 52.9031 191.385 53.6403L198.5 59.5L195 54.5L193.047 52.7913C191.73 51.6391 190.893 50.0354 190.7 48.2963L190.642 47.7755C190.555 46.9983 190.93 46.242 191.601 45.8397L191.705 45.777C192.471 45.3172 193.45 45.4217 194.102 46.0329L201 52.5L199.039 48.186C198.767 47.5875 199.137 46.8939 199.785 46.7858L200.047 46.7421C200.985 46.5858 201.948 46.7686 202.763 47.2577L204.897 48.5384C205.952 49.1709 206.846 50.038 207.511 51.0722L211 56.5L211.855 52.2259C211.932 51.8405 212.329 51.6098 212.702 51.7341V51.7341C213.203 51.901 213.592 52.2993 213.747 52.8036L215.5 58.5L217.5 71L220.162 71.7828C224.009 72.9144 227.568 74.8592 230.599 77.4857L233.5 80L235 97L206.5 80L200.912 77.5553C199.331 76.8636 197.956 75.7744 196.92 74.3937L191.909 67.7115Z" fill="#ECC394"/>
<path d="M232 71.5L242.5 59.5L284.5 62L282 101.5L278.5 105.5L266.5 113L263 110L246.5 113L239 107L235 99L232 71.5Z" fill="#ECC394" fill-opacity="0.752941"/>
<path d="M271 85L273.068 88.1017C273.664 88.996 273.875 90.0927 273.654 91.1445L273 94.25L272.287 96.9849C271.777 98.9381 270.626 100.663 269.017 101.883L257 111H253.638C252.622 111 252.254 109.66 253.127 109.14L265.308 101.898C267.332 100.694 268.723 98.6599 269.111 96.3369L271 85Z" fill="#6A1D1D" fill-opacity="0.08"/>
<path d="M275.126 78.0723C275.059 77.5015 275.505 77 276.08 77V77C277.14 77 278 77.8597 278 78.9203V84V84C277.113 84.6656 275.838 84.1188 275.708 83.0171L275.126 78.0723Z" fill="#6F432A"/>
<path d="M248.871 78.4744C248.521 78.0657 248.544 77.456 248.925 77.0753V77.0753C249.363 76.6371 250.086 76.6821 250.467 77.1713L252.436 79.7039C252.964 80.3819 253.25 81.2163 253.25 82.0753V84.6679C253.25 85.0155 253.028 85.3241 252.698 85.4341V85.4341C252.21 85.5967 251.696 85.2681 251.64 84.7571L251.35 82.1476C251.285 81.5628 251.045 81.0111 250.662 80.5643L248.871 78.4744Z" fill="#6F432A"/>
<path d="M243 83.5C243 82.6716 243.672 82 244.5 82V82C245.328 82 246 82.6716 246 83.5V84.5V85.5C246 86.3284 245.328 87 244.5 87H243.5C243.224 87 243 86.7761 243 86.5V86.5V83.5Z" fill="#6F432A"/>
<path d="M236.52 85.0798C236.812 84.4232 237.463 84 238.182 84V84C239.186 84 240 84.8141 240 85.8183V86.5V89.6172C240 90.5241 239.769 91.416 239.328 92.2088L238.442 93.8043C237.877 94.821 236.734 95.3723 235.587 95.1811L235.5 95.1667C234.858 95.0597 234.282 94.7095 233.892 94.1887V94.1887C233.341 93.4548 233.231 92.4805 233.603 91.6422L236.52 85.0798Z" fill="#9F572E"/>
<path d="M238 99C238 97.8954 238.895 97 240 97V97C241.105 97 242 97.8954 242 99V99.5V103C242 103.552 241.552 104 241 104V104H240.07C239.402 104 238.777 103.666 238.406 103.109L238.336 103.004C238.117 102.675 238 102.289 238 101.894V99Z" fill="#6F432A"/>
<path d="M234 80C234 79.4477 234.448 79 235 79V79C235.552 79 236 79.4477 236 80V81V82C236 82.5523 235.552 83 235 83H234.4C234.179 83 234 82.8209 234 82.6V82.6V80Z" fill="#6F432A"/>
<path d="M151.479 155.015C149.236 151.753 150.745 147.252 154.5 146V146L152.5 156.5L151.479 155.015Z" fill="white"/>
<path d="M128.132 99L155 146.5L152.465 156.5L79.5 188.5L106.84 136L116.472 116L128.132 99Z" fill="url(#paint1_linear_2_40)" fill-opacity="0.42"/>
<path d="M154.773 144.945C154.899 144.419 155.422 144.089 155.951 144.2L162.118 145.499C163.506 145.791 164.5 147.016 164.5 148.434V150L175 151L184.5 156.5L176.5 161.5H164.5C163.395 161.5 162.5 160.605 162.5 159.5V159.5H152.68C152.063 159.5 151.592 158.945 151.694 158.336L152 156.5L154.773 144.945Z" fill="#590505" fill-opacity="0.48"/>
<path d="M200.6 154.86C201.843 155.606 203.266 156 204.716 156H226.252C229.572 156 232.713 154.501 234.802 151.921L240 145.5L256 161.5L243.803 171.594C242.318 172.823 240.439 173.475 238.512 173.429L200.943 172.534C199.989 172.512 199.038 172.66 198.136 172.972L190.41 175.646C187.906 176.513 185.161 176.351 182.777 175.195L171.8 169.873C170.699 169.339 170 168.223 170 167V167L167.412 166.482C166.009 166.202 165 164.948 165 163.518V163.518C165 162.414 165.895 161.5 167 161.5H174L181.484 157.167C182.244 156.727 182.108 155.591 181.265 155.343L177.871 154.345C176.169 153.844 175 152.281 175 150.507V149.5C175 148.948 175.448 148.5 176 148.5H188.338C189.426 148.5 190.493 148.796 191.425 149.355L200.6 154.86Z" fill="#ECC394"/>
<path d="M238.999 144.795C237.876 143.678 237.815 141.879 238.86 140.689L261.338 115.082L279.085 105L283.5 120L301.394 132.221L307.5 144L312 149L320.155 155.41L343.138 191.782C344.31 193.638 344.544 195.937 343.77 197.992L341.958 202.795L298.352 228H292.775L288.211 226.992L262.101 163.321C261.64 162.195 260.543 161.459 259.326 161.459H256.586C256.057 161.459 255.55 161.25 255.175 160.877L238.999 144.795Z" fill="#31CD41" fill-opacity="0.58"/>
<path d="M288 226.969L311.872 204.547C317.082 199.654 320.563 193.201 321.79 186.159L325.651 164L343.788 192.56C344.572 193.795 344.909 195.262 344.743 196.716V196.716C344.567 198.255 344.149 199.757 343.504 201.166L342.385 203.609L298.459 227.984L291.661 229L290.092 227.984L288 226.969Z" fill="#1F1717" fill-opacity="0.33"/>
<path d="M258 161.281L262.875 157.729C269.112 153.185 273.483 146.529 275.174 139V139L283.487 149.155C283.814 149.554 283.957 150.072 283.882 150.582V150.582C283.802 151.121 283.619 151.64 283.342 152.109L282.807 153.016L262.771 161.641L259.67 162L258.954 161.641L258 161.281Z" fill="#1F1717" fill-opacity="0.33"/>
<path d="M269 110.656L274.302 108.128C277.712 106.502 280.324 103.573 281.55 100V100L287.684 104.904C287.877 105.058 287.966 105.309 287.911 105.55V105.55C287.855 105.799 287.736 106.029 287.565 106.218L287.128 106.703L272.486 110.828L270.22 111L269.697 110.828L269 110.656Z" fill="#1F1717" fill-opacity="0.33"/>
<path d="M272 187.5L286.81 223.6C287.556 225.417 289.143 226.754 291.06 227.18L292.5 227.5H293.43C296.423 227.5 299.364 226.709 301.954 225.208L340.657 202.779C341.286 202.414 342.081 202.821 342.153 203.545L348 262.5L384.085 251.579C385.143 251.259 386.259 251.857 386.579 252.915L391.693 269.832C392.148 271.336 391.365 272.936 389.899 273.5L338.703 293.191C332.257 295.67 324.966 293.078 321.531 287.086L304 256.5L293.762 235.135C292.947 233.433 291.557 232.075 289.837 231.299L270.751 222.691C269.229 222.005 267.587 223.374 267.987 224.994L277.251 262.494C277.387 263.044 277.04 263.596 276.485 263.712L257.7 267.644C256.725 267.848 255.748 267.303 255.41 266.366L241 226.5L235.071 206.289C232.5 197.523 238.877 188.683 248.006 188.357L272 187.5Z" fill="#6F432A"/>
<path d="M393.759 250.816C393.363 249.848 393.78 248.738 394.716 248.27L401.111 245.073C403.759 243.749 406.97 245.002 408.021 247.769L421.363 282.878C422.776 286.595 423.5 290.538 423.5 294.515V294.515C423.5 295.611 422.611 296.5 421.515 296.5H421.298C420.154 296.5 419.066 296.011 418.306 295.155L397.695 271.934C397.164 271.336 396.894 270.551 396.945 269.753L397.208 265.603C397.438 261.981 396.843 258.355 395.469 254.996L393.759 250.816Z" fill="#0780B4"/>
<path d="M275.92 272.804C277.052 272.638 278.091 273.454 278.2 274.592L278.889 281.779C279.162 284.631 276.988 287.128 274.126 287.251L240.42 288.699C236.802 288.854 233.189 288.308 229.778 287.091V287.091C228.894 286.775 228.432 285.801 228.748 284.916L228.889 284.522C229.258 283.488 230.035 282.652 231.039 282.208L257.134 270.674C257.901 270.335 258.775 270.332 259.544 270.667L261.058 271.326C265.16 273.112 269.679 273.715 274.106 273.069L275.92 272.804Z" fill="#0780B4"/>
<path d="M387 254L390.5 252.75L394 251.5L395.5 255L396.25 257.25V257.25C396.749 258.746 397.09 260.312 397.264 261.879V261.879C397.42 263.276 397.422 264.705 397.266 266.102L397 268.5L391.5 270L387 254Z" fill="#FFC077"/>
<path d="M275.587 263.877L276 267.583L276.51 273L274.232 273.378C273.745 273.459 273.252 273.5 272.758 273.5L269.5 273.5L266 273L265.254 272.813C263.091 272.273 260.994 271.497 259 270.5V270.5L258.142 267.583L275.587 263.877Z" fill="#FFC077"/>
<path d="M226.5 60L232.267 53.0801C235.056 49.7323 238.532 47.0218 242.458 45.1312V45.1312C247.453 42.7264 252.805 41.1494 258.306 40.4618L263.545 39.8069C265.174 39.6033 266.823 39.6266 268.446 39.8762L276.542 41.1218C278.158 41.3705 279.695 41.9922 281.029 42.9375L284.502 45.397C288.805 48.4452 292.582 52.1753 295.684 56.4402V56.4402C297.885 59.4673 299.684 62.7674 301.035 66.2579L305 76.5L307.96 81.9977C310.648 86.989 313.782 91.7269 317.323 96.1536L318 97L324.943 101.86C326.949 103.265 328.574 105.147 329.669 107.337L330.773 109.546C331.58 111.16 332 112.939 332 114.744V114.744C332 117.823 330.952 120.81 329.029 123.214L326 127V142.929C326 147.456 324.201 151.799 321 155V155L317.475 155.705C313.538 156.492 309.507 154.885 307.192 151.605V151.605C305.744 149.554 304.704 147.244 304.129 144.8L303.714 143.033C302.011 135.796 296.915 129.829 290.034 127.014L286.456 125.55C281.947 123.705 279 119.316 279 114.444V104L275.188 98.6636C274.415 97.5816 274 96.2852 274 94.9556V92.9773C274 92.0184 274.311 91.0853 274.886 90.3182V90.3182C275.273 89.8031 275.879 89.5 276.523 89.5H277.034C278.259 89.5 279.398 88.8746 280.055 87.8418L281.325 85.8457C282.084 84.6536 282.398 83.2321 282.211 81.8315L281.578 77.0855C281.527 76.6988 281.4 76.3258 281.207 75.9871L280.622 74.9633C279.903 73.7046 278.72 72.7771 277.326 72.3788V72.3788C276.491 72.1402 275.592 72.3061 274.897 72.8273L273.9 73.5754C272.691 74.4815 271.928 75.8611 271.803 77.3662L271.5 81L257.301 77.3488C255.11 76.7854 252.993 75.9335 251.021 74.8242V74.8242C247.704 72.9586 244.69 70.5708 242.118 67.7656L240.5 66L238 71L234.5 69V75L233.5 79.5L227 73L226.5 60Z" fill="#2C1010"/>
<defs>
<linearGradient id="paint0_linear_2_40" x1="112.737" y1="53.7282" x2="204.669" y2="45.6945" gradientUnits="userSpaceOnUse">
<stop stop-color="#F0F0F0"/>
<stop offset="1" stop-color="#8A8A8A" stop-opacity="0.38"/>
</linearGradient>
<linearGradient id="paint1_linear_2_40" x1="101.771" y1="135" x2="143.227" y2="148.84" gradientUnits="userSpaceOnUse">
<stop offset="0.325" stop-color="white"/>
<stop offset="0.65" stop-color="#C7C7C7"/>
<stop offset="1" stop-color="#999999"/>
</linearGradient>
</defs>
</svg>
