<svg width="502" height="353" viewBox="0 0 502 353" fill="none" xmlns="http://www.w3.org/2000/svg">
<rect width="502" height="353" fill="white"/>
<path d="M181 130.5L186.92 126.027C197.884 117.743 210.245 111.491 223.416 107.568L227 106.5L253.5 101H264.5L270.5 123L271.5 143.5L276.5 151L282.5 155.5L300.5 153.5L303.5 155.5L316 148.5L351.5 188.5L394.744 263.229C403.766 278.819 416.611 291.853 432.068 301.1L467 322H36L95.9487 264.567C103.59 257.246 109.88 248.636 114.53 239.131L141.34 184.332C149.071 168.531 159.1 153.964 171.102 141.105L181 130.5Z" fill="#090404"/>
<path d="M157.493 121.62C161.822 117.881 166.477 114.536 171.402 111.626L186 103L162.444 123.979C156.835 128.975 151.845 134.625 147.58 140.809L134 160.5L112 207.5L92.5 238.5H65L96 204L112.331 175.651C119.097 163.908 126.909 152.8 135.673 142.462L139.435 138.025C141.143 136.011 143.003 134.133 145.001 132.408L157.493 121.62Z" fill="#D9D9D9" fill-opacity="0.46"/>
<path d="M215.09 79.9038L240.643 79.6924L198.665 88.297L166.816 103.353L148 99L186.528 85.3058L215.09 79.9038Z" fill="url(#paint0_linear_2_39)" fill-opacity="0.76"/>
<path d="M227.909 111.712C227.337 110.95 227.161 109.962 227.435 109.049L227.985 107.216C228.302 106.159 228.013 105.013 227.233 104.233L223.58 100.58C222.621 99.6213 222.326 98.1842 222.83 96.9259V96.9259C222.933 96.6687 223.182 96.5 223.459 96.5H224.206C225.366 96.5 226.49 96.9031 227.385 97.6403L234.5 103.5L231 98.5L229.047 96.7913C227.73 95.6391 226.893 94.0354 226.7 92.2963L226.642 91.7755C226.555 90.9983 226.93 90.242 227.601 89.8397L227.705 89.777C228.471 89.3172 229.45 89.4217 230.102 90.0329L237 96.5L235.039 92.186C234.767 91.5875 235.137 90.8939 235.785 90.7858L236.047 90.7421C236.985 90.5858 237.948 90.7686 238.763 91.2577L240.897 92.5384C241.952 93.1709 242.846 94.038 243.511 95.0722L247 100.5L247.855 96.2259C247.932 95.8405 248.329 95.6098 248.702 95.7341V95.7341C249.203 95.901 249.592 96.2993 249.747 96.8036L251.5 102.5L253.5 115L256.162 115.783C260.009 116.914 263.568 118.859 266.599 121.486L269.5 124L271 141L242.5 124L236.912 121.555C235.331 120.864 233.956 119.774 232.92 118.394L227.909 111.712Z" fill="#ECC394"/>
<path d="M268 115.5L278.5 103.5L320.5 106L318 145.5L314.5 149.5L302.5 157L299 154L282.5 157L275 151L271 143L268 115.5Z" fill="#ECC394" fill-opacity="0.752941"/>
<path d="M307 129L309.068 132.102C309.664 132.996 309.875 134.093 309.654 135.145L309 138.25L308.287 140.985C307.777 142.938 306.626 144.663 305.017 145.883L293 155H289.638C288.622 155 288.254 153.66 289.127 153.14L301.308 145.898C303.332 144.694 304.723 142.66 305.111 140.337L307 129Z" fill="#6A1D1D" fill-opacity="0.08"/>
<path d="M311.126 122.072C311.059 121.502 311.505 121 312.08 121V121C313.14 121 314 121.86 314 122.92V128V128C313.113 128.666 311.838 128.119 311.708 127.017L311.126 122.072Z" fill="#6F432A"/>
<path d="M284.871 122.474C284.521 122.066 284.544 121.456 284.925 121.075V121.075C285.363 120.637 286.086 120.682 286.467 121.171L288.436 123.704C288.964 124.382 289.25 125.216 289.25 126.075V128.668C289.25 129.016 289.028 129.324 288.698 129.434V129.434C288.21 129.597 287.696 129.268 287.64 128.757L287.35 126.148C287.285 125.563 287.045 125.011 286.662 124.564L284.871 122.474Z" fill="#6F432A"/>
<path d="M279 127.5C279 126.672 279.672 126 280.5 126V126C281.328 126 282 126.672 282 127.5V128.5V129.5C282 130.328 281.328 131 280.5 131H279.5C279.224 131 279 130.776 279 130.5V130.5V127.5Z" fill="#6F432A"/>
<path d="M272.52 129.08C272.812 128.423 273.463 128 274.182 128V128C275.186 128 276 128.814 276 129.818V130.5V133.617C276 134.524 275.769 135.416 275.328 136.209L274.442 137.804C273.877 138.821 272.734 139.372 271.587 139.181L271.5 139.167C270.858 139.06 270.282 138.709 269.892 138.189V138.189C269.341 137.455 269.231 136.48 269.603 135.642L272.52 129.08Z" fill="#9F572E"/>
<path d="M274 143C274 141.895 274.895 141 276 141V141C277.105 141 278 141.895 278 143V143.5V147C278 147.552 277.552 148 277 148V148H276.07C275.402 148 274.777 147.666 274.406 147.109L274.336 147.004C274.117 146.675 274 146.289 274 145.894V143Z" fill="#6F432A"/>
<path d="M270 124C270 123.448 270.448 123 271 123V123C271.552 123 272 123.448 272 124V125V126C272 126.552 271.552 127 271 127H270.4C270.179 127 270 126.821 270 126.6V126.6V124Z" fill="#6F432A"/>
<path d="M187.479 199.015C185.236 195.753 186.745 191.252 190.5 190V190L188.5 200.5L187.479 199.015Z" fill="white"/>
<path d="M164.132 143L191 190.5L188.465 200.5L115.5 232.5L142.84 180L152.472 160L164.132 143Z" fill="url(#paint1_linear_2_39)" fill-opacity="0.42"/>
<path d="M190.773 188.945C190.899 188.419 191.422 188.089 191.951 188.2L198.118 189.499C199.506 189.791 200.5 191.016 200.5 192.434V194L211 195L220.5 200.5L212.5 205.5H200.5C199.395 205.5 198.5 204.605 198.5 203.5V203.5H188.68C188.063 203.5 187.592 202.945 187.694 202.336L188 200.5L190.773 188.945Z" fill="#590505" fill-opacity="0.48"/>
<path d="M236.6 198.86C237.843 199.606 239.266 200 240.716 200H262.252C265.572 200 268.713 198.501 270.802 195.921L276 189.5L292 205.5L279.803 215.594C278.318 216.823 276.439 217.475 274.512 217.429L236.943 216.534C235.989 216.512 235.038 216.66 234.136 216.972L226.41 219.646C223.906 220.513 221.161 220.351 218.777 219.195L207.8 213.873C206.699 213.339 206 212.223 206 211V211L203.412 210.482C202.009 210.202 201 208.948 201 207.518V207.518C201 206.414 201.895 205.5 203 205.5H210L217.484 201.167C218.244 200.727 218.108 199.591 217.265 199.343L213.871 198.345C212.169 197.844 211 196.281 211 194.507V193.5C211 192.948 211.448 192.5 212 192.5H224.338C225.426 192.5 226.493 192.796 227.425 193.355L236.6 198.86Z" fill="#ECC394"/>
<path d="M274.999 188.795C273.876 187.678 273.815 185.879 274.86 184.689L297.338 159.082L315.085 149L319.5 164L337.394 176.221L343.5 188L348 193L356.155 199.41L379.138 235.782C380.31 237.638 380.544 239.937 379.77 241.992L377.958 246.795L334.352 272H328.775L324.211 270.992L298.101 207.321C297.64 206.195 296.543 205.459 295.326 205.459H292.586C292.057 205.459 291.55 205.25 291.175 204.877L274.999 188.795Z" fill="#31CD41" fill-opacity="0.58"/>
<path d="M324 270.969L347.872 248.547C353.082 243.654 356.563 237.201 357.79 230.159L361.651 208L379.788 236.56C380.572 237.795 380.909 239.262 380.743 240.716C380.567 242.255 380.149 243.757 379.504 245.166L378.385 247.609L334.459 271.984L327.661 273L326.092 271.984L324 270.969Z" fill="#1F1717" fill-opacity="0.33"/>
<path d="M294 205.281L298.875 201.729C305.112 197.185 309.483 190.529 311.174 183V183L319.487 193.155C319.814 193.554 319.957 194.072 319.882 194.582V194.582C319.802 195.121 319.619 195.64 319.342 196.109L318.807 197.016L298.771 205.641L295.67 206L294.954 205.641L294 205.281Z" fill="#1F1717" fill-opacity="0.33"/>
<path d="M305 154.656L310.302 152.128C313.712 150.502 316.324 147.573 317.55 144V144L323.684 148.904C323.877 149.058 323.966 149.309 323.911 149.55V149.55C323.855 149.799 323.736 150.029 323.565 150.218L323.128 150.703L308.486 154.828L306.22 155L305.697 154.828L305 154.656Z" fill="#1F1717" fill-opacity="0.33"/>
<path d="M308 231.5L322.81 267.6C323.556 269.417 325.143 270.754 327.06 271.18L328.5 271.5H329.43C332.423 271.5 335.364 270.709 337.954 269.208L376.657 246.779C377.286 246.414 378.081 246.821 378.153 247.545L384 306.5L420.085 295.579C421.143 295.259 422.259 295.857 422.579 296.915L427.693 313.832C428.148 315.336 427.365 316.936 425.899 317.5L374.703 337.191C368.257 339.67 360.966 337.078 357.531 331.086L340 300.5L329.762 279.135C328.947 277.433 327.557 276.075 325.837 275.299L306.751 266.691C305.229 266.005 303.587 267.374 303.987 268.994L313.251 306.494C313.387 307.044 313.04 307.596 312.485 307.712L293.7 311.644C292.725 311.848 291.748 311.303 291.41 310.366L277 270.5L271.071 250.289C268.5 241.523 274.877 232.683 284.006 232.357L308 231.5Z" fill="#6F432A"/>
<path d="M429.759 294.816C429.363 293.848 429.78 292.738 430.716 292.27L437.111 289.073C439.759 287.749 442.97 289.002 444.021 291.769L457.363 326.878C458.776 330.595 459.5 334.538 459.5 338.515V338.515C459.5 339.611 458.611 340.5 457.515 340.5H457.298C456.154 340.5 455.066 340.011 454.306 339.155L433.695 315.934C433.164 315.336 432.894 314.551 432.945 313.753L433.208 309.603C433.438 305.981 432.843 302.355 431.469 298.996L429.759 294.816Z" fill="#0780B4"/>
<path d="M311.92 316.804C313.052 316.638 314.091 317.454 314.2 318.592L314.889 325.779C315.162 328.631 312.988 331.128 310.126 331.251L276.42 332.699C272.802 332.854 269.189 332.308 265.778 331.091V331.091C264.894 330.775 264.432 329.801 264.748 328.916L264.889 328.522C265.258 327.488 266.035 326.652 267.039 326.208L293.134 314.674C293.901 314.335 294.775 314.332 295.544 314.667L297.058 315.326C301.16 317.112 305.679 317.715 310.106 317.069L311.92 316.804Z" fill="#0780B4"/>
<path d="M423 298L426.5 296.75L430 295.5L431.5 299L432.25 301.25C432.749 302.746 433.09 304.312 433.264 305.879C433.42 307.276 433.422 308.705 433.266 310.102L433 312.5L427.5 314L423 298Z" fill="#FFC077"/>
<path d="M311.587 307.877L312 311.583L312.51 317L310.232 317.378C309.745 317.459 309.252 317.5 308.758 317.5L305.5 317.5L302 317L301.254 316.813C299.091 316.273 296.994 315.497 295 314.5L294.142 311.583L311.587 307.877Z" fill="#FFC077"/>
<path d="M262.5 104L268.267 97.0801C271.056 93.7323 274.532 91.0218 278.458 89.1312V89.1312C283.453 86.7264 288.805 85.1494 294.306 84.4618L299.545 83.8069C301.174 83.6033 302.823 83.6266 304.446 83.8762L312.542 85.1218C314.158 85.3705 315.695 85.9922 317.029 86.9375L320.502 89.397C324.805 92.4452 328.582 96.1753 331.684 100.44V100.44C333.885 103.467 335.684 106.767 337.035 110.258L341 120.5L343.96 125.998C346.648 130.989 349.782 135.727 353.323 140.154L354 141L360.943 145.86C362.949 147.265 364.574 149.147 365.669 151.337L366.773 153.546C367.58 155.16 368 156.939 368 158.744V158.744C368 161.823 366.952 164.81 365.029 167.214L362 171V186.929C362 191.456 360.201 195.799 357 199V199L353.475 199.705C349.538 200.492 345.507 198.885 343.192 195.605V195.605C341.744 193.554 340.704 191.244 340.129 188.8L339.714 187.033C338.011 179.796 332.915 173.829 326.034 171.014L322.456 169.55C317.947 167.705 315 163.316 315 158.444V148L311.188 142.664C310.415 141.582 310 140.285 310 138.956V136.977C310 136.018 310.311 135.085 310.886 134.318V134.318C311.273 133.803 311.879 133.5 312.523 133.5H313.034C314.259 133.5 315.398 132.875 316.055 131.842L317.325 129.846C318.084 128.654 318.398 127.232 318.211 125.831L317.578 121.086C317.527 120.699 317.4 120.326 317.207 119.987L316.622 118.963C315.903 117.705 314.72 116.777 313.326 116.379V116.379C312.491 116.14 311.592 116.306 310.897 116.827L309.9 117.575C308.691 118.482 307.928 119.861 307.803 121.366L307.5 125L293.301 121.349C291.11 120.785 288.993 119.933 287.021 118.824V118.824C283.704 116.959 280.69 114.571 278.118 111.766L276.5 110L274 115L270.5 113V119L269.5 123.5L263 117L262.5 104Z" fill="#2C1010"/>
<defs>
<linearGradient id="paint0_linear_2_39" x1="148.737" y1="97.7282" x2="240.669" y2="89.6945" gradientUnits="userSpaceOnUse">
<stop stop-color="#F0F0F0"/>
<stop offset="1" stop-color="#8A8A8A" stop-opacity="0.38"/>
</linearGradient>
<linearGradient id="paint1_linear_2_39" x1="137.771" y1="179" x2="179.227" y2="192.84" gradientUnits="userSpaceOnUse">
<stop offset="0.325" stop-color="white"/>
<stop offset="0.65" stop-color="#C7C7C7"/>
<stop offset="1" stop-color="#999999"/>
</linearGradient>
</defs>
</svg>
