<?xml version="1.0" encoding="UTF-8"?>
<svg version="1.1" xmlns="http://www.w3.org/2000/svg" width="431" height="303">
<path d="M0 0 C6.98823644 6.30852955 10.64073316 13.4715719 14.46875 21.88037109 C22.97266086 40.99533482 22.97266086 40.99533482 37.95703125 54.98828125 C41.54673418 57.90174501 43.07544943 61.01363409 43.9140625 65.53515625 C43.92953125 66.72818359 43.92953125 66.72818359 43.9453125 67.9453125 C43.99171875 69.13447266 43.99171875 69.13447266 44.0390625 70.34765625 C43.4453125 73.0078125 43.4453125 73.0078125 40.953125 76.12890625 C37.41864278 80.77090149 37.77525882 85.49359362 37.8203125 91.1328125 C37.8203125 101.68194545 37.8203125 101.68194545 34.4453125 107.0078125 C35.6447632 110.81271406 37.5739514 114.14685731 39.5703125 117.5859375 C40.1893042 118.65561768 40.8082959 119.72529785 41.44604492 120.82739258 C42.10580322 121.95943115 42.76556152 123.09146973 43.4453125 124.2578125 C44.13086135 125.43955452 44.81616221 126.62144045 45.5012207 127.8034668 C49.571527 134.81969638 53.66480087 141.82259575 57.80664062 148.796875 C60.05010079 152.58665398 62.23283821 156.40365554 64.37109375 160.25390625 C73.47196314 176.59681208 83.86767506 194.20164172 100.4453125 204.0078125 C103.6544041 204.35674486 103.6544041 204.35674486 105.8828125 201.6328125 C106.7284375 200.7665625 107.5740625 199.9003125 108.4453125 199.0078125 C110.92717829 197.24648839 112.32470543 197.01807693 115.3828125 196.7578125 C119.6678003 198.50678711 120.44622271 200.9791154 122.27734375 205.09765625 C127.4453125 217.97436768 127.4453125 217.97436768 127.4453125 222.0078125 C128.16074219 222.27464844 128.87617188 222.54148437 129.61328125 222.81640625 C132.50033417 224.03095955 135.07713014 225.45396032 137.7578125 227.0703125 C138.64082031 227.59753906 139.52382813 228.12476563 140.43359375 228.66796875 C141.09746094 229.11011719 141.76132812 229.55226563 142.4453125 230.0078125 C142.4453125 230.3378125 142.4453125 230.6678125 142.4453125 231.0078125 C139.1453125 231.3378125 135.8453125 231.6678125 132.4453125 232.0078125 C133.1878125 234.26625 133.1878125 234.26625 133.9453125 236.5703125 C135.26807334 240.93604429 135.74095737 244.47459118 135.4453125 249.0078125 C133.1628418 249.70019531 133.1628418 249.70019531 130.4453125 250.0078125 C128.62426758 248.79199219 128.62426758 248.79199219 126.96484375 246.9296875 C126.05508789 245.93001953 126.05508789 245.93001953 125.12695312 244.91015625 C124.20172852 243.84474609 124.20172852 243.84474609 123.2578125 242.7578125 C122.62939453 242.06300781 122.00097656 241.36820313 121.35351562 240.65234375 C118.83833264 237.84932699 116.53818793 235.14712564 114.4453125 232.0078125 C95.0285407 226.10431677 73.86465984 237.02394942 56.54579163 244.60780334 C50.92883508 247.01482815 45.97051191 248.7166404 39.8828125 247.0078125 C33.43755138 243.25784239 30.76355516 238.64429782 27.4453125 232.0078125 C15.2353125 231.6778125 3.0253125 231.3478125 -9.5546875 231.0078125 C-9.5546875 233.3178125 -9.5546875 235.6278125 -9.5546875 238.0078125 C-10.81347656 239.91333008 -10.81347656 239.91333008 -12.5546875 241.0078125 C-15.53402035 241.4028455 -18.31406046 241.61572717 -21.3046875 241.6953125 C-22.17488525 241.72729736 -23.04508301 241.75928223 -23.94165039 241.79223633 C-26.8125467 241.88653491 -29.68280503 241.95138121 -32.5546875 242.0078125 C-33.58126465 242.02972656 -34.6078418 242.05164063 -35.66552734 242.07421875 C-38.77448496 242.13203293 -41.88281566 242.1687303 -44.9921875 242.1953125 C-45.96833008 242.20844482 -46.94447266 242.22157715 -47.95019531 242.23510742 C-56.39033488 242.24471529 -56.39033488 242.24471529 -60.5546875 240.0078125 C-60.3671875 238.1953125 -60.3671875 238.1953125 -59.5546875 236.0078125 C-57.28921901 234.43941124 -55.0132346 233.23708605 -52.5546875 232.0078125 C-130.4346875 231.6778125 -208.3146875 231.3478125 -288.5546875 231.0078125 C-282.08704404 223.46222846 -275.39745058 216.1901096 -267.8046875 209.7578125 C-262.98889213 205.65841644 -258.60904942 201.11286149 -254.18457031 196.60058594 C-250.47796636 192.84307248 -246.65507005 189.31509445 -242.66162109 185.86572266 C-230.9626541 175.54948409 -220.00965031 164.80858512 -212.5546875 151.0078125 C-212.08804688 150.18410156 -211.62140625 149.36039063 -211.140625 148.51171875 C-209.2664893 145.03755563 -208.5546875 143.02683735 -208.5546875 139.0078125 C-207.61181641 136.65209961 -207.61181641 136.65209961 -206.28125 134.03515625 C-205.79108398 133.06255859 -205.30091797 132.08996094 -204.79589844 131.08789062 C-204.26254883 130.05083984 -203.72919922 129.01378906 -203.1796875 127.9453125 C-202.63602539 126.87345703 -202.09236328 125.80160156 -201.53222656 124.69726562 C-197.77919674 117.32266062 -193.94876112 109.9892263 -190.06933594 102.68041992 C-187.4501147 97.74057713 -184.91181464 92.76781747 -182.4296875 87.7578125 C-176.18956402 75.22314134 -169.81858482 63.35154192 -161.5546875 52.0078125 C-160.98621094 52.25660156 -160.41773438 52.50539062 -159.83203125 52.76171875 C-157.40406887 53.28798522 -157.40406887 53.28798522 -155.37109375 51.34765625 C-154.62730469 50.55488281 -153.88351563 49.76210937 -153.1171875 48.9453125 C-152.00537109 47.78322266 -152.00537109 47.78322266 -150.87109375 46.59765625 C-149.24139984 44.77558701 -147.67428763 42.8965586 -146.15625 40.98046875 C-141.75521986 35.95166404 -136.11080038 32.63136438 -130.5546875 29.0078125 C-129.71550781 28.44707031 -128.87632812 27.88632813 -128.01171875 27.30859375 C-118.83361586 21.4512115 -108.21806513 17.18401202 -97.5546875 15.0078125 C-98.4003125 14.1003125 -99.2459375 13.1928125 -100.1171875 12.2578125 C-102.58072001 9.33755767 -102.58072001 9.33755767 -102.3671875 6.6328125 C-102.0990625 6.0965625 -101.8309375 5.5603125 -101.5546875 5.0078125 C-100.2346875 5.0078125 -98.9146875 5.0078125 -97.5546875 5.0078125 C-97.8846875 3.0278125 -98.2146875 1.0478125 -98.5546875 -0.9921875 C-96.8046875 -1.6796875 -96.8046875 -1.6796875 -94.5546875 -1.9921875 C-92.3046875 -0.5546875 -92.3046875 -0.5546875 -90.5546875 1.0078125 C-90.2246875 0.3478125 -89.8946875 -0.3121875 -89.5546875 -0.9921875 C-84.68497576 -0.57478364 -82.83283866 1.55246398 -79.5546875 5.0078125 C-78.8946875 5.0078125 -78.2346875 5.0078125 -77.5546875 5.0078125 C-76.5646875 5.0078125 -75.5746875 5.0078125 -74.5546875 5.0078125 C-74.2246875 6.6578125 -73.8946875 8.3078125 -73.5546875 10.0078125 C-65.02139875 10.48568726 -65.02139875 10.48568726 -57.453125 7.37109375 C-56.37635157 5.97871432 -55.32352551 4.56754975 -54.29296875 3.140625 C-41.91270426 -12.04954222 -14.26462587 -11.12379081 0 0 Z " fill="#090404" transform="translate(288.5546875,46.9921875)"/>
<path d="M0 0 C6.98823644 6.30852955 10.64073316 13.4715719 14.46875 21.88037109 C22.97266086 40.99533482 22.97266086 40.99533482 37.95703125 54.98828125 C41.54673418 57.90174501 43.07544943 61.01363409 43.9140625 65.53515625 C43.92953125 66.72818359 43.92953125 66.72818359 43.9453125 67.9453125 C43.99171875 69.13447266 43.99171875 69.13447266 44.0390625 70.34765625 C43.4453125 73.0078125 43.4453125 73.0078125 40.953125 76.12890625 C37.41864278 80.77090149 37.77525882 85.49359362 37.8203125 91.1328125 C37.8203125 101.68194545 37.8203125 101.68194545 34.4453125 107.0078125 C35.6447632 110.81271406 37.5739514 114.14685731 39.5703125 117.5859375 C40.1893042 118.65561768 40.8082959 119.72529785 41.44604492 120.82739258 C42.10580322 121.95943115 42.76556152 123.09146973 43.4453125 124.2578125 C44.13086135 125.43955452 44.81616221 126.62144045 45.5012207 127.8034668 C49.571527 134.81969638 53.66480087 141.82259575 57.80664062 148.796875 C60.05010079 152.58665398 62.23283821 156.40365554 64.37109375 160.25390625 C73.47196314 176.59681208 83.86767506 194.20164172 100.4453125 204.0078125 C103.6544041 204.35674486 103.6544041 204.35674486 105.8828125 201.6328125 C106.7284375 200.7665625 107.5740625 199.9003125 108.4453125 199.0078125 C110.92717829 197.24648839 112.32470543 197.01807693 115.3828125 196.7578125 C119.6678003 198.50678711 120.44622271 200.9791154 122.27734375 205.09765625 C127.4453125 217.97436768 127.4453125 217.97436768 127.4453125 222.0078125 C128.16074219 222.27464844 128.87617188 222.54148437 129.61328125 222.81640625 C132.50033417 224.03095955 135.07713014 225.45396032 137.7578125 227.0703125 C138.64082031 227.59753906 139.52382813 228.12476563 140.43359375 228.66796875 C141.09746094 229.11011719 141.76132812 229.55226563 142.4453125 230.0078125 C142.4453125 230.3378125 142.4453125 230.6678125 142.4453125 231.0078125 C139.1453125 231.3378125 135.8453125 231.6678125 132.4453125 232.0078125 C133.1878125 234.26625 133.1878125 234.26625 133.9453125 236.5703125 C135.26807334 240.93604429 135.74095737 244.47459118 135.4453125 249.0078125 C133.1628418 249.70019531 133.1628418 249.70019531 130.4453125 250.0078125 C128.62426758 248.79199219 128.62426758 248.79199219 126.96484375 246.9296875 C126.05508789 245.93001953 126.05508789 245.93001953 125.12695312 244.91015625 C124.20172852 243.84474609 124.20172852 243.84474609 123.2578125 242.7578125 C122.62939453 242.06300781 122.00097656 241.36820313 121.35351562 240.65234375 C118.83833264 237.84932699 116.53818793 235.14712564 114.4453125 232.0078125 C95.0285407 226.10431677 73.86465984 237.02394942 56.54579163 244.60780334 C50.92883508 247.01482815 45.97051191 248.7166404 39.8828125 247.0078125 C33.43755138 243.25784239 30.76355516 238.64429782 27.4453125 232.0078125 C15.2353125 231.6778125 3.0253125 231.3478125 -9.5546875 231.0078125 C-9.5546875 233.3178125 -9.5546875 235.6278125 -9.5546875 238.0078125 C-10.81347656 239.91333008 -10.81347656 239.91333008 -12.5546875 241.0078125 C-15.53402035 241.4028455 -18.31406046 241.61572717 -21.3046875 241.6953125 C-22.17488525 241.72729736 -23.04508301 241.75928223 -23.94165039 241.79223633 C-26.8125467 241.88653491 -29.68280503 241.95138121 -32.5546875 242.0078125 C-33.58126465 242.02972656 -34.6078418 242.05164063 -35.66552734 242.07421875 C-38.77448496 242.13203293 -41.88281566 242.1687303 -44.9921875 242.1953125 C-45.96833008 242.20844482 -46.94447266 242.22157715 -47.95019531 242.23510742 C-56.39033488 242.24471529 -56.39033488 242.24471529 -60.5546875 240.0078125 C-60.3671875 238.1953125 -60.3671875 238.1953125 -59.5546875 236.0078125 C-54.83923604 232.62987005 -49.25236364 230.66792863 -43.9296875 228.4453125 C-42.04048387 227.65516585 -40.15241016 226.86231069 -38.265625 226.06640625 C-37.43337402 225.71892334 -36.60112305 225.37144043 -35.74365234 225.01342773 C-33.342684 223.9796554 -33.342684 223.9796554 -30.5546875 222.0078125 C-32.0396875 221.0178125 -32.0396875 221.0178125 -33.5546875 220.0078125 C-34.64208984 217.6003418 -34.64208984 217.6003418 -35.640625 214.58203125 C-36.19689575 212.93207153 -36.19689575 212.93207153 -36.7644043 211.2487793 C-37.14894775 210.07613525 -37.53349121 208.90349121 -37.9296875 207.6953125 C-38.7338893 205.29887847 -39.53985604 202.90303595 -40.34765625 200.5078125 C-40.92265869 198.79658203 -40.92265869 198.79658203 -41.50927734 197.05078125 C-42.65524806 193.7151019 -43.90941333 190.45995802 -45.2421875 187.1953125 C-47.41236575 181.65604633 -49.17290724 176.01961561 -50.8671875 170.3203125 C-51.13426514 169.45237061 -51.40134277 168.58442871 -51.67651367 167.69018555 C-53.61973896 160.95704109 -54.98368791 153.87451948 -52.4921875 147.1328125 C-48.92023017 143.21518188 -45.71367467 141.23181825 -40.45336914 140.68603516 C-36.83357361 140.61459682 -33.23627987 140.65912723 -29.6171875 140.7578125 C-28.36099609 140.77585938 -27.10480469 140.79390625 -25.81054688 140.8125 C-22.72446834 140.85943656 -19.63997969 140.92508836 -16.5546875 141.0078125 C-18.19651875 137.02698268 -19.8438175 133.04843873 -21.4921875 129.0703125 C-21.96076172 127.93400391 -22.42933594 126.79769531 -22.91210938 125.62695312 C-23.5840332 124.00756836 -23.5840332 124.00756836 -24.26953125 122.35546875 C-24.68323975 121.35523682 -25.09694824 120.35500488 -25.52319336 119.32446289 C-26.35170042 117.09134975 -26.35170042 117.09134975 -27.5546875 116.0078125 C-30.39043422 115.5114407 -30.39043422 115.5114407 -33.5546875 116.0078125 C-36.0316621 118.18377356 -36.0316621 118.18377356 -38.4375 120.9453125 C-46.94976864 129.0306865 -58.4581026 127.25247618 -69.4296875 127.0078125 C-72.639901 126.97936513 -75.84975992 126.96495745 -79.06008911 126.95849609 C-81.045796 126.94991089 -83.03151326 126.92626402 -85.01681519 126.88525391 C-90.0044826 126.81663136 -93.85107906 127.13981441 -98.5546875 129.0078125 C-104.28222218 129.57991585 -107.54643662 128.36309136 -112.4921875 125.5078125 C-113.63558594 124.858125 -114.77898437 124.2084375 -115.95703125 123.5390625 C-117.24287109 122.78109375 -117.24287109 122.78109375 -118.5546875 122.0078125 C-118.5546875 121.3478125 -118.5546875 120.6878125 -118.5546875 120.0078125 C-119.8746875 119.6778125 -121.1946875 119.3478125 -122.5546875 119.0078125 C-122.8846875 117.6878125 -123.2146875 116.3678125 -123.5546875 115.0078125 C-122.98621094 114.98203125 -122.41773438 114.95625 -121.83203125 114.9296875 C-116.03591634 114.50392948 -112.35541908 113.30831546 -107.5546875 110.0078125 C-107.2246875 109.3478125 -106.8946875 108.6878125 -106.5546875 108.0078125 C-108.5346875 107.6778125 -110.5146875 107.3478125 -112.5546875 107.0078125 C-113.0496875 104.5328125 -113.0496875 104.5328125 -113.5546875 102.0078125 C-110.90628263 101.84361748 -108.26830291 101.72598978 -105.6171875 101.6328125 C-104.88177734 101.58253906 -104.14636719 101.53226562 -103.38867188 101.48046875 C-98.61720795 101.35545223 -96.1588559 102.03666976 -92.37890625 104.99609375 C-86.45254251 109.34763309 -80.4056436 108.78112213 -73.3046875 108.5703125 C-72.05171875 108.56837891 -70.79875 108.56644531 -69.5078125 108.56445312 C-62.09423928 108.45752659 -57.65728955 108.11041455 -52.2421875 102.6953125 C-50.27028363 100.13362203 -50.27028363 100.13362203 -50.7265625 97.1640625 C-50.49751638 92.95794284 -49.05302456 91.77402376 -46.1171875 88.8203125 C-45.20453125 87.87414062 -44.291875 86.92796875 -43.3515625 85.953125 C-42.64870117 85.22657715 -42.64870117 85.22657715 -41.93164062 84.48535156 C-39.77062627 82.16647588 -37.83146375 79.68113796 -35.8671875 77.1953125 C-32.41112677 72.89825654 -28.82480447 69.47728253 -24.5546875 66.0078125 C-24.2246875 65.3478125 -23.8946875 64.6878125 -23.5546875 64.0078125 C-25.40906612 64.15092546 -27.26318179 64.29744701 -29.1171875 64.4453125 C-30.21675781 64.52652344 -31.31632812 64.60773438 -32.44921875 64.69140625 C-35.6955055 64.93932661 -35.6955055 64.93932661 -39.3046875 66.0078125 C-43.7166288 66.0078125 -45.42774395 64.28395451 -48.66015625 61.453125 C-50.50914463 59.06659567 -51.040775 57.5679706 -51.96875 54.765625 C-54.86191682 47.92774054 -61.5447115 45.15063325 -67.7421875 41.7578125 C-68.94987783 41.07261653 -70.15627132 40.38512954 -71.36132812 39.6953125 C-75.63707464 37.26001794 -79.93279279 34.86475562 -84.28369141 32.56591797 C-90.28089374 29.37387847 -94.15098231 26.0028582 -97.5546875 20.0078125 C-98.2421875 16.1953125 -98.2421875 16.1953125 -98.5546875 13.0078125 C-99.86855919 11.65529753 -101.19895002 10.31835873 -102.5546875 9.0078125 C-102.3046875 6.7578125 -102.3046875 6.7578125 -101.5546875 5.0078125 C-100.2346875 5.0078125 -98.9146875 5.0078125 -97.5546875 5.0078125 C-97.8846875 3.0278125 -98.2146875 1.0478125 -98.5546875 -0.9921875 C-96.8046875 -1.6796875 -96.8046875 -1.6796875 -94.5546875 -1.9921875 C-92.3046875 -0.5546875 -92.3046875 -0.5546875 -90.5546875 1.0078125 C-90.2246875 0.3478125 -89.8946875 -0.3121875 -89.5546875 -0.9921875 C-84.68497576 -0.57478364 -82.83283866 1.55246398 -79.5546875 5.0078125 C-78.8946875 5.0078125 -78.2346875 5.0078125 -77.5546875 5.0078125 C-76.5646875 5.0078125 -75.5746875 5.0078125 -74.5546875 5.0078125 C-74.0596875 7.4828125 -74.0596875 7.4828125 -73.5546875 10.0078125 C-65.02139875 10.48568726 -65.02139875 10.48568726 -57.453125 7.37109375 C-56.37635157 5.97871432 -55.32352551 4.56754975 -54.29296875 3.140625 C-41.91270426 -12.04954222 -14.26462587 -11.12379081 0 0 Z " fill="#207826" transform="translate(288.5546875,46.9921875)"/>
<path d="M0 0 C0.04125 1.010625 0.0825 2.02125 0.125 3.0625 C0.83028388 7.8790138 3.5378231 10.73211925 7 14 C9.44615928 15.66713407 12.01476771 16.92426051 14.6875 18.1875 C21.34254173 21.55563641 27.86029385 25.08706196 34.25 28.9375 C35.04752686 29.39084717 35.84505371 29.84419434 36.66674805 30.3112793 C42.11073791 33.65324382 44.2405133 36.87148867 46.83007812 42.65161133 C48.70512023 46.41539054 50.31200886 47.91548327 54 50 C57.02439913 50.2522749 59.77948366 49.81047478 62.75 49.25 C70.83628319 47.91814159 70.83628319 47.91814159 73 49 C71.80069794 52.59790618 69.93773949 53.72684336 67.0859375 56.078125 C63.79194811 59.11303657 61.12802298 62.61364563 58.35546875 66.12109375 C55.32661589 69.82302503 52.0216232 73.22096399 48.65234375 76.61328125 C46.56892168 79.62266869 46.95287823 81.4093215 47 85 C45.57421875 87.30078125 45.57421875 87.30078125 43.6875 89.3125 C43.07261719 89.98925781 42.45773438 90.66601562 41.82421875 91.36328125 C37.0516319 95.64532384 29.39274888 94.34891385 23.375 94.4375 C22.12847656 94.48326172 20.88195312 94.52902344 19.59765625 94.57617188 C12.14276896 94.66670113 7.94165716 93.99282365 2.06933594 89.37817383 C-1.43822262 87.04214645 -4.95428771 87.11059785 -9.0625 87.125 C-9.83271484 87.104375 -10.60292969 87.08375 -11.39648438 87.0625 C-13.26386286 87.0161055 -15.1320502 87.00428921 -17 87 C-16.67 88.65 -16.34 90.3 -16 92 C-14.02 92.33 -12.04 92.66 -10 93 C-11.17804274 96.53412822 -12.6054566 97.45765122 -15.8125 99.21484375 C-19.79012431 100.64252676 -23.83774961 100.30149097 -28 100 C-28.33 99.01 -28.66 98.02 -29 97 C-31.43948993 96.86226217 -33.87089914 96.76469605 -36.3125 96.6875 C-36.98345703 96.64560547 -37.65441406 96.60371094 -38.34570312 96.56054688 C-45.08619159 96.40231945 -50.06101835 99.06491073 -56 102 C-57.85408745 102.82192845 -59.71351393 103.6319205 -61.578125 104.4296875 C-62.50399414 104.82905518 -63.42986328 105.22842285 -64.38378906 105.63989258 C-65.32963867 106.04747803 -66.27548828 106.45506348 -67.25 106.875 C-76.24356024 110.76675089 -85.13965365 114.81535449 -94 119 C-96.03954781 119.94210071 -98.08105262 120.87998289 -100.125 121.8125 C-100.95257813 122.19019531 -101.78015625 122.56789063 -102.6328125 122.95703125 C-106.04464725 124.46026537 -109.46268995 125.82089665 -113 127 C-111.71985322 123.70725883 -110.32788685 120.52756337 -108.75 117.3671875 C-108.09221558 116.04871826 -108.09221558 116.04871826 -107.42114258 114.70361328 C-106.95216553 113.7701709 -106.48318848 112.83672852 -106 111.875 C-105.51233154 110.90159668 -105.02466309 109.92819336 -104.5222168 108.92529297 C-100.95357196 101.82953271 -97.2877746 94.78975428 -93.56494141 87.77392578 C-90.93027953 82.79967576 -88.37379416 77.79374832 -85.875 72.75 C-79.6348815 60.21532527 -73.26389725 48.34372933 -65 37 C-64.43152344 37.24878906 -63.86304688 37.49757812 -63.27734375 37.75390625 C-60.84938137 38.28017272 -60.84938137 38.28017272 -58.81640625 36.33984375 C-58.07261719 35.54707031 -57.32882813 34.75429687 -56.5625 33.9375 C-55.45068359 32.77541016 -55.45068359 32.77541016 -54.31640625 31.58984375 C-52.68671234 29.76777451 -51.11960013 27.8887461 -49.6015625 25.97265625 C-45.20053236 20.94385154 -39.55611288 17.62355188 -34 14 C-33.16082031 13.43925781 -32.32164062 12.87851563 -31.45703125 12.30078125 C-23.08619264 6.95858777 -10.0076196 0 0 0 Z " fill="#090404" transform="translate(192,62)"/>
<path d="M0 0 C1.30388672 0.01804688 2.60777344 0.03609375 3.95117188 0.0546875 C7.15570909 0.10164043 10.3587189 0.16730536 13.5625 0.25 C13.93101074 1.17651367 14.29952148 2.10302734 14.67919922 3.05761719 C17.87855178 11.09325538 21.11620889 19.11328911 24.375 27.125 C24.97042603 28.59670654 24.97042603 28.59670654 25.57788086 30.09814453 C25.95050049 31.01192871 26.32312012 31.92571289 26.70703125 32.8671875 C27.04065674 33.68815918 27.37428223 34.50913086 27.71801758 35.35498047 C28.41393928 37.22079037 28.41393928 37.22079037 29.5625 38.25 C35.1644982 39.16061288 39.59408168 38.58284891 44.51171875 35.7421875 C45.4665918 35.19780029 46.42146484 34.65341309 47.40527344 34.0925293 C48.4471582 33.48449463 49.48904297 32.87645996 50.5625 32.25 C52.30869707 31.24812623 54.05489717 30.24625772 55.8012085 29.24458313 C59.50674338 27.11607851 63.20762294 24.97942988 66.90209961 22.83178711 C68.7434129 21.76233867 70.58817237 20.69905838 72.43359375 19.63671875 C73.51568115 19.00983154 74.59776855 18.38294434 75.71264648 17.73706055 C78.07609514 16.50380725 79.96167042 15.71377468 82.5625 15.25 C82.68367188 16.219375 82.80484375 17.18875 82.9296875 18.1875 C83.04957031 19.14523315 83.04957031 19.14523315 83.171875 20.12231445 C83.35243963 21.56865704 83.53209401 23.0151135 83.7109375 24.46166992 C84.14374794 27.95308257 84.58883667 31.44063696 85.0703125 34.92578125 C86.83731792 47.98198796 87.66556434 61.11032522 88.5625 74.25 C89.39386475 73.9826001 90.22522949 73.7152002 91.08178711 73.43969727 C94.20518743 72.43957444 97.33083755 71.44718254 100.45825195 70.4597168 C101.80426298 70.03304273 103.14934388 69.60342161 104.4934082 69.1706543 C111.82975789 66.81069056 118.83217826 64.72361265 126.5625 64.25 C132.0524161 63.82769876 133.85100041 62.25451272 137.5625 58.25 C140.04436579 56.48867589 141.44189293 56.26026443 144.5 56 C148.7849878 57.74897461 149.56341021 60.2213029 151.39453125 64.33984375 C156.5625 77.21655518 156.5625 77.21655518 156.5625 81.25 C157.27792969 81.51683594 157.99335938 81.78367187 158.73046875 82.05859375 C161.61752167 83.27314705 164.19431764 84.69614782 166.875 86.3125 C167.75800781 86.83972656 168.64101563 87.36695313 169.55078125 87.91015625 C170.21464844 88.35230469 170.87851562 88.79445313 171.5625 89.25 C171.5625 89.58 171.5625 89.91 171.5625 90.25 C166.6125 90.745 166.6125 90.745 161.5625 91.25 C162.0575 92.755625 162.5525 94.26125 163.0625 95.8125 C164.38526084 100.17823179 164.85814487 103.71677868 164.5625 108.25 C162.2800293 108.94238281 162.2800293 108.94238281 159.5625 109.25 C157.74145508 108.03417969 157.74145508 108.03417969 156.08203125 106.171875 C155.17227539 105.17220703 155.17227539 105.17220703 154.24414062 104.15234375 C153.62732422 103.44207031 153.01050781 102.73179687 152.375 102 C151.74658203 101.30519531 151.11816406 100.61039062 150.47070312 99.89453125 C147.95552014 97.09151449 145.65537543 94.38931314 143.5625 91.25 C124.1457282 85.34650427 102.98184734 96.26613692 85.66297913 103.84999084 C80.04602258 106.25701565 75.08769941 107.9588279 69 106.25 C62.55473888 102.50002989 59.88074266 97.88648532 56.5625 91.25 C44.3525 90.92 32.1425 90.59 19.5625 90.25 C19.5625 92.56 19.5625 94.87 19.5625 97.25 C18.30371094 99.15551758 18.30371094 99.15551758 16.5625 100.25 C13.58316715 100.645033 10.80312704 100.85791467 7.8125 100.9375 C6.94230225 100.96948486 6.07210449 101.00146973 5.17553711 101.03442383 C2.3046408 101.12872241 -0.56561753 101.19356871 -3.4375 101.25 C-4.46407715 101.27191406 -5.4906543 101.29382813 -6.54833984 101.31640625 C-9.65729746 101.37422043 -12.76562816 101.4109178 -15.875 101.4375 C-16.85114258 101.45063232 -17.82728516 101.46376465 -18.83300781 101.47729492 C-27.27314738 101.48690279 -27.27314738 101.48690279 -31.4375 99.25 C-31.25 97.4375 -31.25 97.4375 -30.4375 95.25 C-25.72204854 91.87205755 -20.13517614 89.91011613 -14.8125 87.6875 C-12.92329637 86.89735335 -11.03522266 86.10449819 -9.1484375 85.30859375 C-8.31618652 84.96111084 -7.48393555 84.61362793 -6.62646484 84.25561523 C-4.2254965 83.2218429 -4.2254965 83.2218429 -1.4375 81.25 C-2.9225 80.26 -2.9225 80.26 -4.4375 79.25 C-5.52490234 76.8425293 -5.52490234 76.8425293 -6.5234375 73.82421875 C-6.89428467 72.72424561 -7.26513184 71.62427246 -7.6472168 70.4909668 C-8.03176025 69.31832275 -8.41630371 68.14567871 -8.8125 66.9375 C-9.6167018 64.54106597 -10.42266854 62.14522345 -11.23046875 59.75 C-11.61380371 58.60917969 -11.99713867 57.46835938 -12.39208984 56.29296875 C-13.53806056 52.9572894 -14.79222583 49.70214552 -16.125 46.4375 C-18.29517825 40.89823383 -20.05571974 35.26180311 -21.75 29.5625 C-22.01707764 28.69455811 -22.28415527 27.82661621 -22.55932617 26.93237305 C-24.50255146 20.19922859 -25.86650041 13.11670698 -23.375 6.375 C-16.67069094 -0.97811316 -9.37258688 -0.24602449 0 0 Z " fill="#6E4229" transform="translate(259.4375,187.75)"/>
<path d="M0 0 C6.98823644 6.30852955 10.64073316 13.4715719 14.46875 21.88037109 C22.97266086 40.99533482 22.97266086 40.99533482 37.95703125 54.98828125 C41.54673418 57.90174501 43.07544943 61.01363409 43.9140625 65.53515625 C43.92953125 66.72818359 43.92953125 66.72818359 43.9453125 67.9453125 C43.97625 68.73808594 44.0071875 69.53085938 44.0390625 70.34765625 C43.4453125 73.0078125 43.4453125 73.0078125 40.953125 76.12890625 C37.41864278 80.77090149 37.77525882 85.49359362 37.8203125 91.1328125 C37.8203125 101.68194545 37.8203125 101.68194545 34.4453125 107.0078125 C35.69784351 112.22809275 39.29212136 116.82897881 42.08203125 121.36328125 C42.53191406 122.23597656 42.98179687 123.10867187 43.4453125 124.0078125 C43.1153125 124.6678125 42.7853125 125.3278125 42.4453125 126.0078125 C41.81882812 125.03199219 41.19234375 124.05617187 40.546875 123.05078125 C39.72136762 121.76561636 38.89584605 120.48046058 38.0703125 119.1953125 C37.6578125 118.55271484 37.2453125 117.91011719 36.8203125 117.24804688 C35.04716758 114.48823261 33.26496112 111.73728542 31.4453125 109.0078125 C30.3521875 109.0078125 29.2590625 109.0078125 28.1328125 109.0078125 C24.01412349 109.0078125 22.60523463 108.56991152 19.4453125 106.0078125 C16.55882593 102.52704928 15.19573302 99.3757003 14.0703125 95.0703125 C12.5897008 89.8997994 10.70772298 86.36983007 6.4453125 83.0078125 C3.39956904 81.33587661 0.33648493 79.85465128 -2.84765625 78.46484375 C-6.79338881 76.34109448 -8.15661812 74.20202063 -9.5546875 70.0078125 C-9.74915019 66.49019855 -9.87206418 62.97440452 -9.98046875 59.453125 C-10.63980023 55.49713612 -11.97650751 53.98851466 -14.5546875 51.0078125 C-15.06193388 45.02230525 -15.06193388 45.02230525 -13.5546875 42.0078125 C-11.88802083 41.34114583 -10.22135417 40.67447917 -8.5546875 40.0078125 C-7.39125523 37.68094797 -7.35572762 36.16059837 -7.3046875 33.5703125 C-7.27890625 32.78785156 -7.253125 32.00539062 -7.2265625 31.19921875 C-7.386524 28.92690618 -7.386524 28.92690618 -8.93359375 27.203125 C-10.5187911 25.74177539 -10.5187911 25.74177539 -12.7421875 26.3203125 C-13.3403125 26.5471875 -13.9384375 26.7740625 -14.5546875 27.0078125 C-15.2146875 29.3178125 -15.8746875 31.6278125 -16.5546875 34.0078125 C-28.78321526 32.00233395 -39.0207736 29.6646098 -47.5546875 20.0078125 C-48.8746875 21.3278125 -50.1946875 22.6478125 -51.5546875 24.0078125 C-52.2146875 23.6778125 -52.8746875 23.3478125 -53.5546875 23.0078125 C-53.8846875 25.9778125 -54.2146875 28.9478125 -54.5546875 32.0078125 C-57.10091325 31.08834209 -59.23555242 30.26091964 -61.3671875 28.5703125 C-64.53253664 26.30934883 -67.88733795 25.29138484 -71.5546875 24.0078125 C-71.8846875 19.3878125 -72.2146875 14.7678125 -72.5546875 10.0078125 C-70.5540625 10.0078125 -68.5534375 10.0078125 -66.4921875 10.0078125 C-61.62194248 9.71590839 -61.62194248 9.71590839 -57.51953125 7.37109375 C-56.43726894 5.97505514 -55.37404424 4.56409557 -54.328125 3.140625 C-41.78456599 -11.94480059 -14.36398649 -11.20127387 0 0 Z " fill="#2C1010" transform="translate(288.5546875,46.9921875)"/>
<path d="M0 0 C3 1 3 1 4.5859375 3.7890625 C5.18994401 5.06411136 5.78561221 6.34312813 6.375 7.625 C10.35345565 15.94534651 14.84055455 23.93234261 19.43115234 31.92822266 C28.79191906 48.27632506 28.79191906 48.27632506 28.125 52.5625 C27.1424807 55.96037925 26.1133927 56.92227615 23.15625 58.94921875 C19.49863069 60.81444276 15.80100928 62.45826731 12 64 C2.07241181 68.06276311 -7.68641905 72.4434321 -17.43383789 76.91601562 C-25.31094916 80.52647909 -33.18319097 83.9459429 -41.31274414 86.95703125 C-43.62781248 87.85554782 -45.80500721 88.84381133 -48 90 C-46.71985322 86.70725883 -45.32788685 83.52756337 -43.75 80.3671875 C-43.09221558 79.04871826 -43.09221558 79.04871826 -42.42114258 77.70361328 C-41.95216553 76.7701709 -41.48318848 75.83672852 -41 74.875 C-40.51233154 73.90159668 -40.02466309 72.92819336 -39.5222168 71.92529297 C-35.95357196 64.82953271 -32.2877746 57.78975428 -28.56494141 50.77392578 C-25.93027953 45.79967576 -23.37379416 40.79374832 -20.875 35.75 C-14.6348815 23.21532527 -8.26389725 11.34372933 0 0 Z " fill="#615E5E" transform="translate(127,99)"/>
<path d="M0 0 C2.98704569 0.49784095 4.39324263 1.26216175 7 3 C7.33 2.34 7.66 1.68 8 1 C12.86971174 1.41740386 14.72184884 3.54465148 18 7 C18.66 7 19.32 7 20 7 C20.99 7 21.98 7 23 7 C25.79878147 13.34390467 26.11769609 19.17362651 26 26 C26.66386719 26.17015625 27.32773438 26.3403125 28.01171875 26.515625 C33.20397564 27.94065317 36.99006556 29.24068646 41 33 C41.99 33.495 41.99 33.495 43 34 C43.33 31.03 43.66 28.06 44 25 C44.99 25 45.98 25 47 25 C48.70532323 23.05990478 48.70532323 23.05990478 50 21 C50.78310547 21.79664063 50.78310547 21.79664063 51.58203125 22.609375 C57.30324779 28.10013974 62.41088811 30.85682652 70 33 C71.03769531 33.29777344 72.07539063 33.59554687 73.14453125 33.90234375 C75.7566815 34.62999023 78.37276752 35.32921724 81 36 C80.938125 35.071875 80.87625 34.14375 80.8125 33.1875 C81 30 81 30 82.25 28.0625 C84 27 84 27 86 27.125 C88.30368007 28.13286003 89.41636414 29.04920834 91 31 C91.76381737 35.06620423 91.56438802 38.84300456 89.75 42.5625 C88 44 88 44 84 44 C83.47198236 50.36077959 83.47198236 50.36077959 86 56.0625 C86.99 57.0215625 86.99 57.0215625 88 58 C86.18613424 62.45829111 83.56306225 63.92967822 79.41015625 66.1015625 C76.5085656 67.18319273 74.35680303 66.92817104 71.36328125 66.23828125 C68.07395671 65.90663035 65.22709703 66.6979626 62 67.375 C55.80420955 68.35014047 55.80420955 68.35014047 52.4609375 66.89453125 C49.63263851 64.57998694 47.50592038 62.58312302 46.36694336 59.01904297 C43.60530016 50.71890508 37.06096474 47.71818665 29.8125 43.75 C28.60480967 43.06480403 27.39841618 42.37731704 26.19335938 41.6875 C21.91761286 39.25220544 17.62189471 36.85694312 13.27099609 34.55810547 C7.27379376 31.36606597 3.40370519 27.9950457 0 22 C-0.6875 18.1875 -0.6875 18.1875 -1 15 C-2.31387169 13.64748503 -3.64426252 12.31054623 -5 11 C-4.75 8.75 -4.75 8.75 -4 7 C-2.68 7 -1.36 7 0 7 C-0.185625 6.030625 -0.37125 5.06125 -0.5625 4.0625 C-0.706875 3.051875 -0.85125 2.04125 -1 1 C-0.67 0.67 -0.34 0.34 0 0 Z " fill="#E6BD8E" transform="translate(191,45)"/>
<path d="M0 0 C0.99 0.495 0.99 0.495 2 1 C-17.80736169 19.60421921 -17.80736169 19.60421921 -23.39453125 23.796875 C-28.7901327 28.35927263 -32.8143978 34.34455111 -37 40 C-37.47888672 40.64179199 -37.95777344 41.28358398 -38.45117188 41.94482422 C-50.16471524 57.87413065 -58.49346422 76.07216097 -66.05834961 94.27197266 C-70.76365496 105.52759618 -77.39456602 115.49257674 -84.3659668 125.47558594 C-86.04030731 127.91308862 -86.04030731 127.91308862 -87.06567383 130.43847656 C-88.16131466 132.86750934 -88.9301069 134.30684417 -91 136 C-95.80171178 136.98566578 -100.43752995 136.75261429 -105.3125 136.5 C-106.62541016 136.46390625 -107.93832031 136.4278125 -109.29101562 136.390625 C-112.53030187 136.29639122 -115.76366962 136.16494088 -119 136 C-117.11479084 131.92132229 -114.38235447 128.97716285 -111.3125 125.75 C-110.21798673 124.58274649 -109.12423255 123.41478071 -108.03125 122.24609375 C-107.5053125 121.68519043 -106.979375 121.12428711 -106.4375 120.54638672 C-104.16762425 118.10457405 -101.98141645 115.59533958 -99.81591797 113.06103516 C-98.57294378 111.65028118 -97.29418976 110.27048015 -95.98681641 108.91918945 C-90.22202265 102.87070278 -86.04857601 96.51511833 -82.05557251 89.1937561 C-80.69203275 86.6965102 -79.29681465 84.21745936 -77.90312195 81.73695374 C-77.2122954 80.50716473 -76.52275128 79.27665437 -75.83454895 78.0453949 C-63.08368061 55.24254399 -47.75377382 34.12123502 -27 18 C-26.236875 17.34773438 -25.47375 16.69546875 -24.6875 16.0234375 C-19.44937357 11.58164786 -13.88607797 7.9471462 -8 4.4375 C-7.24509277 3.98318604 -6.49018555 3.52887207 -5.71240234 3.06079102 C-3.84570475 1.9735446 -1.92623308 0.97790122 0 0 Z " fill="#DADADA" transform="translate(148,59)"/>
<path d="M0 0 C2.93230193 1.32120828 4.98664899 2.74638197 7.234375 5.0390625 C7.80800781 5.61914062 8.38164062 6.19921875 8.97265625 6.796875 C9.55917969 7.40015625 10.14570313 8.0034375 10.75 8.625 C11.35199219 9.23601562 11.95398438 9.84703125 12.57421875 10.4765625 C14.05405305 11.97988624 15.52764676 13.48934856 17 15 C15.87785057 16.1572166 14.74842039 17.30781757 13.59432983 18.43318176 C12.48274164 19.5255885 11.39915769 20.6469128 10.33853149 21.78886414 C5.76687128 26.34795302 2.52325486 27.80306141 -3.91836548 27.89424133 C-4.8863205 27.87371201 -5.85427551 27.85318268 -6.8515625 27.83203125 C-8.37805923 27.84335335 -8.37805923 27.84335335 -9.93539429 27.85490417 C-13.16617907 27.87332623 -16.39436287 27.84505718 -19.625 27.8125 C-22.8621286 27.80647856 -26.09892334 27.81031057 -29.33602905 27.82365417 C-31.34386931 27.82911865 -33.351795 27.82199005 -35.35952759 27.80049133 C-40.36387747 27.78558743 -44.28314419 28.13246965 -49 30 C-54.72753468 30.57210335 -57.99174912 29.35527886 -62.9375 26.5 C-64.08089844 25.8503125 -65.22429687 25.200625 -66.40234375 24.53125 C-67.25957031 24.0259375 -68.11679688 23.520625 -69 23 C-69 22.34 -69 21.68 -69 21 C-70.32 20.67 -71.64 20.34 -73 20 C-73.33 18.68 -73.66 17.36 -74 16 C-73.14728516 15.96132812 -73.14728516 15.96132812 -72.27734375 15.921875 C-66.48122884 15.49611698 -62.80073158 14.30050296 -58 11 C-57.67 10.34 -57.34 9.68 -57 9 C-59.97 8.505 -59.97 8.505 -63 8 C-63.33 6.35 -63.66 4.7 -64 3 C-61.35159513 2.83580498 -58.71361541 2.71817728 -56.0625 2.625 C-55.32708984 2.57472656 -54.59167969 2.52445313 -53.83398438 2.47265625 C-49.06252045 2.34763973 -46.6041684 3.02885726 -42.82421875 5.98828125 C-36.89785501 10.33982059 -30.8509561 9.77330963 -23.75 9.5625 C-22.49703125 9.56056641 -21.2440625 9.55863281 -19.953125 9.55664062 C-10.7987644 9.44638604 -10.7987644 9.44638604 -3.41796875 4.39453125 C-2.80888672 3.61142578 -2.80888672 3.61142578 -2.1875 2.8125 C-1.465625 1.884375 -0.74375 0.95625 0 0 Z " fill="#E8C092" transform="translate(239,146)"/>
<path d="M0 0 C5.79988742 0.5363172 10.42402263 2.1757963 15.6875 4.625 C16.43322266 4.94339844 17.17894531 5.26179687 17.94726562 5.58984375 C23.3305433 8.07738865 25.65905286 10.60408521 28 16 C28.28190186 16.59925293 28.56380371 17.19850586 28.85424805 17.81591797 C29.75601905 19.74373681 30.62748101 21.68378537 31.5 23.625 C36.03245914 33.52131612 41.50177543 42.85964477 47.02539062 52.22851562 C48 54 48 54 48 55 C35.46 55 22.92 55 10 55 C10 53.35 10 51.7 10 50 C9.34 50 8.68 50 8 50 C8.06960938 48.87948242 8.06960938 48.87948242 8.140625 47.73632812 C8.47111264 38.05185993 6.53384856 29.73834382 4 20.5 C3.42405383 18.35759623 2.85281214 16.21411448 2.28808594 14.06872559 C1.7794973 12.14294226 1.25734829 10.22075496 0.734375 8.29882812 C0.08593867 5.38603835 -0.1573434 2.96423729 0 0 Z " fill="#0A0404" transform="translate(268,223)"/>
<path d="M0 0 C2.4072582 3.05625393 4.33029351 6.2242818 6.22265625 9.62109375 C6.83850586 10.71542725 7.45435547 11.80976074 8.08886719 12.93725586 C8.4109314 13.50958954 8.73299561 14.08192322 9.06481934 14.67160034 C18.64784207 31.63359749 29.27250132 48.2200564 46 59 C43.26661195 59.74854535 40.96184213 60.08185077 38.0859375 60.30859375 C31.68561515 60.97851688 25.72160449 63.08605319 19.625 65.0625 C17.30588099 65.80711286 14.98561819 66.5481756 12.6640625 67.28515625 C11.64779785 67.61394775 10.6315332 67.94273926 9.58447266 68.28149414 C7 69 7 69 4 69 C2.30457338 59.76533586 1.48709331 50.53312787 0.75488281 41.18212891 C0.1870724 34.0037036 -0.51441818 26.85561916 -1.390625 19.70825195 C-2.25031517 12.50748017 -1.91176472 6.9301471 0 0 Z " fill="#0A0404" transform="translate(344,193)"/>
<path d="M0 0 C2.98704569 0.49784095 4.39324263 1.26216175 7 3 C7.33 2.34 7.66 1.68 8 1 C12.86971174 1.41740386 14.72184884 3.54465148 18 7 C18.66 7 19.32 7 20 7 C20.99 7 21.98 7 23 7 C25.79878147 13.34390467 26.11769609 19.17362651 26 26 C26.66386719 26.17015625 27.32773438 26.3403125 28.01171875 26.515625 C33.26237878 27.95668206 36.85775063 29.34507408 41 33 C42.32 33.33 43.64 33.66 45 34 C44.34 39.28 43.68 44.56 43 50 C43.99 50.33 44.98 50.66 46 51 C45.34 52.32 44.68 53.64 44 55 C43.67 54.01 43.34 53.02 43 52 C40.47233876 50.16126091 40.47233876 50.16126091 37.3125 48.3828125 C36.7359668 48.04377899 36.15943359 47.70474548 35.56542969 47.35543823 C33.71507087 46.27019156 31.85770035 45.19762087 30 44.125 C28.77948147 43.41095294 27.55942397 42.69611724 26.33984375 41.98046875 C21.22825583 38.99009299 16.10563088 36.04493358 10.875 33.265625 C5.89622072 30.51461895 2.80329848 26.93753176 0 22 C-0.6875 18.1875 -0.6875 18.1875 -1 15 C-2.31387169 13.64748503 -3.64426252 12.31054623 -5 11 C-4.75 8.75 -4.75 8.75 -4 7 C-2.68 7 -1.36 7 0 7 C-0.185625 6.030625 -0.37125 5.06125 -0.5625 4.0625 C-0.706875 3.051875 -0.85125 2.04125 -1 1 C-0.67 0.67 -0.34 0.34 0 0 Z " fill="#E7BE90" transform="translate(191,45)"/>
<path d="M0 0 C0.60457031 0.76570312 1.20914063 1.53140625 1.83203125 2.3203125 C3.37881057 4.23218748 5.00813425 6.0784692 6.6875 7.875 C9.78424127 11.49715239 12.34790323 15.4078454 14.875 19.4375 C15.28065186 20.05802246 15.68630371 20.67854492 16.10424805 21.31787109 C19.02007484 26.09855085 19.56653284 29.4098239 19 35 C17.71693719 38.42430402 16.3497767 39.70469592 13.1328125 41.375 C12.33866943 41.7973291 11.54452637 42.2196582 10.72631836 42.65478516 C9.8678833 43.09870605 9.00944824 43.54262695 8.125 44 C-0.29778846 48.47828917 -8.50458132 53.21965532 -16.63818359 58.203125 C-17.42918457 58.68523437 -18.22018555 59.16734375 -19.03515625 59.6640625 C-19.7300415 60.09154785 -20.42492676 60.5190332 -21.14086914 60.95947266 C-24.57487141 62.88143164 -27.33354703 63.11255134 -31.1875 63.0625 C-32.08855469 63.05347656 -32.98960937 63.04445312 -33.91796875 63.03515625 C-34.60503906 63.02355469 -35.29210937 63.01195312 -36 63 C-30.73126394 56.70321788 -25.2564145 50.88890694 -19 45.5625 C-4.46426074 32.85781317 -2.88201287 18.37862388 0 0 Z " fill="#205821" transform="translate(325,164)"/>
<path d="M0 0 C6.67709725 3.4127386 8.68576258 13.4213636 11.11328125 20.08984375 C11.8125 22.4375 11.8125 22.4375 11.8125 25.4375 C12.52792969 25.70433594 13.24335938 25.97117187 13.98046875 26.24609375 C16.86752167 27.46064705 19.44431764 28.88364782 22.125 30.5 C23.00800781 31.02722656 23.89101563 31.55445313 24.80078125 32.09765625 C25.46464844 32.53980469 26.12851562 32.98195313 26.8125 33.4375 C26.8125 33.7675 26.8125 34.0975 26.8125 34.4375 C21.8625 34.9325 21.8625 34.9325 16.8125 35.4375 C17.3075 36.943125 17.8025 38.44875 18.3125 40 C19.63526084 44.36573179 20.10814487 47.90427868 19.8125 52.4375 C17.74609375 53.37109375 17.74609375 53.37109375 14.8125 53.4375 C12.13232166 51.47096435 10.05068663 48.99887797 7.875 46.5 C6.98264648 45.52063477 6.98264648 45.52063477 6.07226562 44.52148438 C2.49711406 40.54779133 -0.78577572 36.42238554 -3.92797852 32.09936523 C-5.22649086 30.30755202 -5.22649086 30.30755202 -7.1875 28.4375 C-7.41625262 26.25711108 -7.54700438 24.06596789 -7.625 21.875 C-7.96101298 15.83298883 -8.96422013 11.04403185 -11.1875 5.4375 C-7.56404461 2.77968628 -4.51018677 0.61904524 0 0 Z " fill="#077FB2" transform="translate(404.1875,243.5625)"/>
<path d="M0 0 C5.11475738 1.08659489 10.36381187 1.24505265 15.57421875 1.546875 C16.44823401 5.64910793 16.8860264 9.33747169 16.57421875 13.546875 C15.29980469 15.22583008 15.29980469 15.22583008 13.57421875 16.546875 C10.5948859 16.941908 7.81484579 17.15478967 4.82421875 17.234375 C3.51892212 17.28235229 3.51892212 17.28235229 2.18725586 17.33129883 C-0.68364045 17.42559741 -3.55389878 17.49044371 -6.42578125 17.546875 C-7.96564697 17.57974609 -7.96564697 17.57974609 -9.53662109 17.61328125 C-12.64557871 17.67109543 -15.75390941 17.7077928 -18.86328125 17.734375 C-19.83942383 17.74750732 -20.81556641 17.76063965 -21.82128906 17.77416992 C-30.26142863 17.78377779 -30.26142863 17.78377779 -34.42578125 15.546875 C-34.23828125 13.734375 -34.23828125 13.734375 -33.42578125 11.546875 C-28.68961424 8.15687994 -23.07852112 6.166586 -17.73828125 3.921875 C-15.83835815 3.11762088 -13.93860975 2.31295393 -12.0390625 1.5078125 C-11.20157471 1.15509277 -10.36408691 0.80237305 -9.5012207 0.43896484 C-5.53526837 -1.26572753 -4.27338237 -1.16905839 0 0 Z " fill="#087FB2" transform="translate(262.42578125,271.453125)"/>
<path d="M0 0 C-0.33 0.66 -0.66 1.32 -1 2 C-3.5562906 2.59407971 -6.05830681 3.0679027 -8.64453125 3.48828125 C-10.27608737 3.77658438 -11.90717448 4.06755128 -13.5378418 4.36083984 C-14.39920746 4.51494324 -15.26057312 4.66904663 -16.14804077 4.82781982 C-36.01370063 8.4414955 -52.45559267 14.51135926 -70.16650391 24.18310547 C-72.76074647 25.33894243 -74.43819576 24.837153 -77.1875 24.25 C-78.1465625 24.05148438 -79.105625 23.85296875 -80.09375 23.6484375 C-81.0528125 23.43445313 -82.011875 23.22046875 -83 23 C-83.8971875 22.80664062 -84.794375 22.61328125 -85.71875 22.4140625 C-87.81549788 21.95622831 -89.90823299 21.48007768 -92 21 C-92 20.34 -92 19.68 -92 19 C-61.64785829 7.14999276 -33.07508236 -1.74668681 0 0 Z " fill="#C4C4C4" transform="translate(204,35)"/>
<path d="M0 0 C1.53202706 0.25195908 3.05257128 0.57596777 4.5625 0.9375 C5.38878906 1.13214844 6.21507812 1.32679688 7.06640625 1.52734375 C8.02353516 1.76130859 8.02353516 1.76130859 9 2 C9 3.32 9 4.64 9 6 C10.051875 5.95875 11.10375 5.9175 12.1875 5.875 C15.74010173 5.99147875 17.84866641 6.47208068 21 8 C21 8.66 21 9.32 21 10 C23.97 10.495 23.97 10.495 27 11 C25.82195726 14.53412822 24.3945434 15.45765122 21.1875 17.21484375 C17.20987569 18.64252676 13.16225039 18.30149097 9 18 C8.67 17.01 8.34 16.02 8 15 C7.15695313 15.02320313 6.31390625 15.04640625 5.4453125 15.0703125 C3.80175781 15.09738281 3.80175781 15.09738281 2.125 15.125 C1.03445312 15.14820313 -0.05609375 15.17140625 -1.1796875 15.1953125 C-4 15 -4 15 -6 13 C-5.01 12.67 -4.02 12.34 -3 12 C-2.80083984 10.82630859 -2.80083984 10.82630859 -2.59765625 9.62890625 C-2.42105469 8.61699219 -2.24445313 7.60507813 -2.0625 6.5625 C-1.88847656 5.55316406 -1.71445313 4.54382813 -1.53515625 3.50390625 C-1 1 -1 1 0 0 Z " fill="#320807" transform="translate(155,144)"/>
<path d="M0 0 C3.5085152 2.75086242 6.54975464 5.23039176 9 9 C8.87670898 11.01098633 8.87670898 11.01098633 8 13 C6.08227539 14.2644043 6.08227539 14.2644043 3.59765625 15.32421875 C2.70755859 15.71287109 1.81746094 16.10152344 0.90039062 16.50195312 C-0.03611328 16.89318359 -0.97261719 17.28441406 -1.9375 17.6875 C-2.87013672 18.09033203 -3.80277344 18.49316406 -4.76367188 18.90820312 C-6.49045621 19.65360461 -8.21995944 20.39275887 -9.95288086 21.1237793 C-11.31987995 21.70889077 -12.67002498 22.33501249 -14 23 C-15.67654729 22.72057545 -17.34608154 22.39171753 -19 22 C-17.07723966 20.52488896 -15.17909883 19.10856713 -13.10546875 17.8515625 C-6.26436559 13.4766004 -3.38885376 7.13777323 0 0 Z " fill="#1F5921" transform="translate(275,140)"/>
<path d="M0 0 C3.96 0 7.92 0 12 0 C11.67 5.61 11.34 11.22 11 17 C7.7 16.01 4.4 15.02 1 14 C0.67 9.38 0.34 4.76 0 0 Z " fill="#0C0606" transform="translate(216,57)"/>
<path d="M0 0 C0.33 0 0.66 0 1 0 C1.268125 1.0725 1.53625 2.145 1.8125 3.25 C2.86227827 6.56508928 3.74612328 8.43877646 6 11 C4.19256268 15.40976853 1.63536073 16.96818802 -2.46875 19.16015625 C-6.61897727 20.53716067 -10.00298781 19.48352462 -14 18 C-11.22212894 15.13795103 -8.46077382 12.57512105 -5.3125 10.125 C-1.67843809 7.09134832 -0.82873149 4.60406382 0 0 Z " fill="#E3BD8D" transform="translate(273,92)"/>
<path d="M0 0 C3 1 3 1 4.1875 3.375 C5.28707097 8.28077818 5.16030864 12.99480813 5 18 C3.02 18.33 1.04 18.66 -1 19 C-2.32 13.72 -3.64 8.44 -5 3 C-3.35 2.01 -1.7 1.02 0 0 Z " fill="#F8BC76" transform="translate(392,251)"/>
<path d="M0 0 C0 2.97 0 5.94 0 9 C-11.52164009 9.3690205 -11.52164009 9.3690205 -17 7 C-17 5.68 -17 4.36 -17 3 C-14.73000175 2.49622232 -12.45896997 1.99709981 -10.1875 1.5 C-8.29064453 1.08234375 -8.29064453 1.08234375 -6.35546875 0.65625 C-3 0 -3 0 0 0 Z " fill="#F7BB74" transform="translate(276,264)"/>
<path d="M0 0 C0.99 0.33 1.98 0.66 3 1 C2.40449687 4.06414188 1.49830655 5.96496054 -0.44140625 8.3984375 C-0.93930664 9.03652344 -1.43720703 9.67460938 -1.95019531 10.33203125 C-2.48225586 11.00621094 -3.01431641 11.68039063 -3.5625 12.375 C-9.12538215 19.57911548 -13.73074043 26.9637467 -18 35 C-19 32 -19 32 -18.33837891 30.12158203 C-17.97147949 29.42403809 -17.60458008 28.72649414 -17.2265625 28.0078125 C-16.81776855 27.22575439 -16.40897461 26.44369629 -15.98779297 25.63793945 C-15.53807129 24.80866943 -15.08834961 23.97939941 -14.625 23.125 C-14.17398926 22.2796167 -13.72297852 21.4342334 -13.25830078 20.56323242 C-9.3288959 13.33052156 -4.90859255 6.60407258 0 0 Z " fill="#FBFAFA" transform="translate(127,99)"/>
<path d="M0 0 C1.32 0 2.64 0 4 0 C5.5625 2.25 5.5625 2.25 7 5 C7.99 6.32 8.98 7.64 10 9 C2.08 9 -5.84 9 -14 9 C-10.79424107 6.86282738 -7.613585 5.53949999 -4.05859375 4.09765625 C-1.68542536 3.0407859 -1.68542536 3.0407859 0 0 Z " fill="#0C0707" transform="translate(393,269)"/>
<path d="M0 0 C1 3 1 3 0.38116455 4.84567261 C0.0326947 5.53452545 -0.31577515 6.2233783 -0.67480469 6.93310547 C-1.06561218 7.7175705 -1.45641968 8.50203552 -1.85906982 9.31027222 C-2.29229553 10.15405426 -2.72552124 10.9978363 -3.171875 11.8671875 C-3.61009583 12.73892609 -4.04831665 13.61066467 -4.49981689 14.50881958 C-5.90727465 17.30233993 -7.32866828 20.08851758 -8.75 22.875 C-9.6935789 24.74565488 -10.63629791 26.61674376 -11.578125 28.48828125 C-19.8752791 44.92047973 -19.8752791 44.92047973 -22 48 C-22.66 48 -23.32 48 -24 48 C-22.71985322 44.70725883 -21.32788685 41.52756337 -19.75 38.3671875 C-19.31091309 37.48708008 -18.87182617 36.60697266 -18.41943359 35.70019531 C-17.95102051 34.76788086 -17.48260742 33.83556641 -17 32.875 C-16.51740723 31.91174805 -16.03481445 30.94849609 -15.53759766 29.95605469 C-11.09210779 21.11722147 -6.50672475 12.35487077 -1.85693359 3.62207031 C-1.22315982 2.42241421 -0.60676914 1.21353829 0 0 Z " fill="#F9F9F9" transform="translate(103,141)"/>
<path d="M0 0 C6.93 3.96 6.93 3.96 14 8 C14 8.33 14 8.66 14 9 C10.04 9 6.08 9 2 9 C1.34 6.03 0.68 3.06 0 0 Z " fill="#080405" transform="translate(417,269)"/>
<path d="M0 0 C0.99 0 1.98 0 3 0 C3.25 7.625 3.25 7.625 1 11 C-0.32 11 -1.64 11 -3 11 C-2.25 3.375 -2.25 3.375 0 0 Z " fill="#A25C33" transform="translate(237,84)"/>
<path d="M0 0 C0.99 0.33 1.98 0.66 3 1 C3 2.98 3 4.96 3 7 C1.68 6.67 0.36 6.34 -1 6 C-1.042721 4.33388095 -1.04063832 2.66617115 -1 1 C-0.67 0.67 -0.34 0.34 0 0 Z " fill="#71452C" transform="translate(239,97)"/>
<path d="M0 0 C0.99 0 1.98 0 3 0 C3 2.31 3 4.62 3 7 C2.01 6.67 1.02 6.34 0 6 C0 4.02 0 2.04 0 0 Z " fill="#805438" transform="translate(275,77)"/>
<path d="M0 0 C0.66 0 1.32 0 2 0 C1.67 2.64 1.34 5.28 1 8 C0.34 8 -0.32 8 -1 8 C-1.04241723 5.66705225 -1.04092937 3.33297433 -1 1 C-0.67 0.67 -0.34 0.34 0 0 Z " fill="#C6C2C2" transform="translate(152,147)"/>
<path d="M0 0 C3 1 3 1 4 3 C4.039992 4.99960012 4.04346799 7.00047242 4 9 C2 8 2 8 1.3671875 6.15234375 C1.20476562 5.42144531 1.04234375 4.69054687 0.875 3.9375 C0.70742187 3.20402344 0.53984375 2.47054687 0.3671875 1.71484375 C0.24601563 1.14894531 0.12484375 0.58304687 0 0 Z " fill="#84583C" transform="translate(249,77)"/>
</svg>
